<?xml version="1.0" encoding="UTF-8" standalone="no"?>
<!DOCTYPE svg PUBLIC "-//W3C//DTD SVG 20010904//EN"
              "http://www.w3.org/TR/2001/REC-SVG-20010904/DTD/svg10.dtd">

<svg xmlns="http://www.w3.org/2000/svg"
     width="5.29in" height="0.593333in"
     viewBox="0 0 1587 178">
  <path id="SAKATA KOJI&apos;S PORTFOLIO"
        fill="black" stroke="black" stroke-width="1"
        d="M 40.30,133.05
           C 35.96,133.05 31.84,132.66 27.94,131.88
             24.04,131.09 20.43,129.97 17.09,128.50
             13.76,127.02 10.75,125.20 8.06,123.03
             7.46,122.51 7.05,121.95 6.83,121.34
             6.61,120.74 6.61,120.16 6.83,119.59
             7.05,119.02 7.37,118.56 7.80,118.22
             8.23,117.88 8.75,117.70 9.36,117.70
             9.96,117.70 10.57,117.96 11.19,118.48
             15.26,121.70 19.57,124.03 24.11,125.50
             28.66,126.97 34.05,127.70 40.30,127.70
             48.96,127.70 55.48,125.98 59.86,122.52
             64.24,119.05 66.44,114.45 66.44,108.73
             66.44,104.05 64.83,100.39 61.62,97.75
             58.41,95.11 53.17,93.04 45.89,91.56
             45.89,91.56 33.02,88.97 33.02,88.97
             24.87,87.32 18.80,84.59 14.81,80.78
             10.83,76.97 8.84,71.81 8.84,65.31
             8.84,61.41 9.60,57.88 11.11,54.72
             12.63,51.55 14.77,48.82 17.55,46.53
             20.32,44.23 23.61,42.45 27.42,41.20
             31.24,39.95 35.45,39.31 40.05,39.31
             45.77,39.31 51.00,40.16 55.77,41.84
             60.54,43.53 64.87,46.15 68.77,49.70
             69.38,50.23 69.77,50.81 69.94,51.47
             70.11,52.12 70.09,52.72 69.88,53.28
             69.66,53.84 69.35,54.28 68.95,54.59
             68.57,54.90 68.07,55.05 67.47,55.05
             66.86,55.05 66.26,54.74 65.66,54.12
             61.93,50.84 57.98,48.43 53.81,46.92
             49.66,45.40 45.07,44.64 40.05,44.64
             34.93,44.64 30.47,45.48 26.66,47.17
             22.84,48.86 19.88,51.27 17.75,54.39
             15.62,57.51 14.56,61.15 14.56,65.31
             14.56,70.34 16.04,74.30 18.98,77.20
             21.93,80.11 26.70,82.21 33.28,83.52
             33.28,83.52 46.16,86.11 46.16,86.11
             54.99,87.93 61.53,90.60 65.78,94.11
             70.03,97.62 72.16,102.45 72.16,108.59
             72.16,112.24 71.41,115.56 69.94,118.55
             68.47,121.54 66.37,124.12 63.64,126.28
             60.91,128.45 57.57,130.12 53.62,131.30
             49.68,132.46 45.23,133.05 40.30,133.05 Z
           M 86.06,132.78
           C 85.20,132.78 84.55,132.60 84.11,132.25
             83.67,131.91 83.45,131.41 83.45,130.77
             83.45,130.12 83.63,129.41 83.98,128.62
             83.98,128.62 121.16,42.30 121.16,42.30
             121.59,41.35 122.11,40.66 122.72,40.22
             123.32,39.78 123.93,39.56 124.55,39.56
             125.23,39.56 125.88,39.78 126.48,40.22
             127.10,40.66 127.58,41.35 127.92,42.30
             127.92,42.30 165.09,128.62 165.09,128.62
             165.45,129.41 165.62,130.12 165.62,130.77
             165.62,131.41 165.45,131.91 165.09,132.25
             164.75,132.60 164.14,132.78 163.28,132.78
             162.41,132.78 161.70,132.52 161.14,132.00
             160.58,131.48 160.12,130.83 159.77,130.05
             159.77,130.05 149.23,105.48 149.23,105.48
             149.23,105.48 152.75,106.66 152.75,106.66
             152.75,106.66 96.06,106.66 96.06,106.66
             96.06,106.66 99.70,105.48 99.70,105.48
             99.70,105.48 89.19,130.05 89.19,130.05
             88.83,131.01 88.35,131.70 87.75,132.12
             87.14,132.56 86.58,132.78 86.06,132.78 Z
           M 124.41,47.77
           C 124.41,47.77 101.14,102.36 101.14,102.36
             101.14,102.36 98.28,101.58 98.28,101.58
             98.28,101.58 150.55,101.58 150.55,101.58
             150.55,101.58 147.94,102.36 147.94,102.36
             147.94,102.36 124.67,47.77 124.67,47.77
             124.67,47.77 124.41,47.77 124.41,47.77 Z
           M 186.20,132.78
           C 185.34,132.78 184.66,132.52 184.19,132.00
             183.72,131.48 183.48,130.79 183.48,129.92
             183.48,129.92 183.48,42.44 183.48,42.44
             183.48,41.48 183.72,40.76 184.19,40.28
             184.66,39.80 185.34,39.56 186.20,39.56
             187.08,39.56 187.75,39.80 188.22,40.28
             188.70,40.76 188.94,41.48 188.94,42.44
             188.94,42.44 188.94,82.98 188.94,82.98
             188.94,82.98 189.20,82.98 189.20,82.98
             189.20,82.98 235.88,41.52 235.88,41.52
             236.74,40.83 237.52,40.34 238.20,40.03
             238.90,39.72 239.60,39.56 240.30,39.56
             241.16,39.56 241.80,39.74 242.23,40.09
             242.67,40.44 242.84,40.89 242.75,41.45
             242.66,42.02 242.28,42.60 241.59,43.20
             241.59,43.20 191.55,87.55 191.55,87.55
             191.55,87.55 191.80,83.38 191.80,83.38
             191.80,83.38 243.94,128.36 243.94,128.36
             244.80,129.06 245.27,129.76 245.36,130.45
             245.44,131.14 245.24,131.70 244.77,132.12
             244.30,132.56 243.63,132.78 242.77,132.78
             242.07,132.78 241.41,132.63 240.81,132.33
             240.21,132.02 239.55,131.57 238.86,130.95
             238.86,130.95 189.20,88.06 189.20,88.06
             189.20,88.06 188.94,88.06 188.94,88.06
             188.94,88.06 188.94,129.92 188.94,129.92
             188.94,130.79 188.72,131.48 188.28,132.00
             187.85,132.52 187.16,132.78 186.20,132.78 Z
           M 252.06,132.78
           C 251.20,132.78 250.55,132.60 250.11,132.25
             249.67,131.91 249.45,131.41 249.45,130.77
             249.45,130.12 249.63,129.41 249.98,128.62
             249.98,128.62 287.16,42.30 287.16,42.30
             287.59,41.35 288.11,40.66 288.72,40.22
             289.32,39.78 289.93,39.56 290.55,39.56
             291.23,39.56 291.88,39.78 292.48,40.22
             293.10,40.66 293.58,41.35 293.92,42.30
             293.92,42.30 331.09,128.62 331.09,128.62
             331.45,129.41 331.62,130.12 331.62,130.77
             331.62,131.41 331.45,131.91 331.09,132.25
             330.75,132.60 330.14,132.78 329.28,132.78
             328.41,132.78 327.70,132.52 327.14,132.00
             326.58,131.48 326.12,130.83 325.77,130.05
             325.77,130.05 315.23,105.48 315.23,105.48
             315.23,105.48 318.75,106.66 318.75,106.66
             318.75,106.66 262.06,106.66 262.06,106.66
             262.06,106.66 265.70,105.48 265.70,105.48
             265.70,105.48 255.19,130.05 255.19,130.05
             254.83,131.01 254.35,131.70 253.75,132.12
             253.14,132.56 252.58,132.78 252.06,132.78 Z
           M 290.41,47.77
           C 290.41,47.77 267.14,102.36 267.14,102.36
             267.14,102.36 264.28,101.58 264.28,101.58
             264.28,101.58 316.55,101.58 316.55,101.58
             316.55,101.58 313.94,102.36 313.94,102.36
             313.94,102.36 290.67,47.77 290.67,47.77
             290.67,47.77 290.41,47.77 290.41,47.77 Z
           M 365.09,132.78
           C 364.23,132.78 363.55,132.52 363.08,132.00
             362.60,131.48 362.36,130.79 362.36,129.92
             362.36,129.92 362.36,45.42 362.36,45.42
             362.36,45.42 329.47,45.42 329.47,45.42
             328.60,45.42 327.91,45.18 327.39,44.70
             326.87,44.23 326.61,43.59 326.61,42.81
             326.61,42.04 326.87,41.44 327.39,41.00
             327.91,40.56 328.60,40.34 329.47,40.34
             329.47,40.34 400.70,40.34 400.70,40.34
             401.66,40.34 402.38,40.56 402.84,41.00
             403.32,41.44 403.56,42.04 403.56,42.81
             403.56,43.69 403.32,44.34 402.84,44.78
             402.38,45.21 401.66,45.42 400.70,45.42
             400.70,45.42 367.81,45.42 367.81,45.42
             367.81,45.42 367.81,129.92 367.81,129.92
             367.81,130.79 367.59,131.48 367.16,132.00
             366.73,132.52 366.04,132.78 365.09,132.78 Z
           M 401.06,132.78
           C 400.20,132.78 399.55,132.60 399.11,132.25
             398.67,131.91 398.45,131.41 398.45,130.77
             398.45,130.12 398.63,129.41 398.98,128.62
             398.98,128.62 436.16,42.30 436.16,42.30
             436.59,41.35 437.11,40.66 437.72,40.22
             438.32,39.78 438.93,39.56 439.55,39.56
             440.23,39.56 440.88,39.78 441.48,40.22
             442.10,40.66 442.58,41.35 442.92,42.30
             442.92,42.30 480.09,128.62 480.09,128.62
             480.45,129.41 480.62,130.12 480.62,130.77
             480.62,131.41 480.45,131.91 480.09,132.25
             479.75,132.60 479.14,132.78 478.28,132.78
             477.41,132.78 476.70,132.52 476.14,132.00
             475.58,131.48 475.12,130.83 474.77,130.05
             474.77,130.05 464.23,105.48 464.23,105.48
             464.23,105.48 467.75,106.66 467.75,106.66
             467.75,106.66 411.06,106.66 411.06,106.66
             411.06,106.66 414.70,105.48 414.70,105.48
             414.70,105.48 404.19,130.05 404.19,130.05
             403.83,131.01 403.35,131.70 402.75,132.12
             402.14,132.56 401.58,132.78 401.06,132.78 Z
           M 439.41,47.77
           C 439.41,47.77 416.14,102.36 416.14,102.36
             416.14,102.36 413.28,101.58 413.28,101.58
             413.28,101.58 465.55,101.58 465.55,101.58
             465.55,101.58 462.94,102.36 462.94,102.36
             462.94,102.36 439.67,47.77 439.67,47.77
             439.67,47.77 439.41,47.77 439.41,47.77 Z
           M 533.20,132.78
           C 532.34,132.78 531.66,132.52 531.19,132.00
             530.72,131.48 530.48,130.79 530.48,129.92
             530.48,129.92 530.48,42.44 530.48,42.44
             530.48,41.48 530.72,40.76 531.19,40.28
             531.66,39.80 532.34,39.56 533.20,39.56
             534.08,39.56 534.75,39.80 535.22,40.28
             535.70,40.76 535.94,41.48 535.94,42.44
             535.94,42.44 535.94,82.98 535.94,82.98
             535.94,82.98 536.20,82.98 536.20,82.98
             536.20,82.98 582.88,41.52 582.88,41.52
             583.74,40.83 584.52,40.34 585.20,40.03
             585.90,39.72 586.60,39.56 587.30,39.56
             588.16,39.56 588.80,39.74 589.23,40.09
             589.67,40.44 589.84,40.89 589.75,41.45
             589.66,42.02 589.28,42.60 588.59,43.20
             588.59,43.20 538.55,87.55 538.55,87.55
             538.55,87.55 538.80,83.38 538.80,83.38
             538.80,83.38 590.94,128.36 590.94,128.36
             591.80,129.06 592.27,129.76 592.36,130.45
             592.44,131.14 592.24,131.70 591.77,132.12
             591.30,132.56 590.63,132.78 589.77,132.78
             589.07,132.78 588.41,132.63 587.81,132.33
             587.21,132.02 586.55,131.57 585.86,130.95
             585.86,130.95 536.20,88.06 536.20,88.06
             536.20,88.06 535.94,88.06 535.94,88.06
             535.94,88.06 535.94,129.92 535.94,129.92
             535.94,130.79 535.72,131.48 535.28,132.00
             534.85,132.52 534.16,132.78 533.20,132.78 Z
           M 639.75,133.05
           C 631.52,133.05 624.41,131.14 618.42,127.33
             612.44,123.51 607.83,118.09 604.58,111.08
             601.33,104.06 599.70,95.73 599.70,86.11
             599.70,78.83 600.61,72.31 602.44,66.55
             604.26,60.79 606.90,55.89 610.36,51.86
             613.83,47.83 618.03,44.73 622.97,42.56
             627.91,40.40 633.51,39.31 639.75,39.31
             648.07,39.31 655.24,41.20 661.27,44.97
             667.29,48.74 671.90,54.12 675.11,61.09
             678.32,68.06 679.92,76.36 679.92,85.98
             679.92,93.27 678.99,99.81 677.12,105.61
             675.26,111.41 672.59,116.36 669.12,120.44
             665.66,124.51 661.46,127.63 656.52,129.80
             651.58,131.96 645.99,133.05 639.75,133.05 Z
           M 639.75,127.70
           C 647.03,127.70 653.23,126.08 658.34,122.83
             663.46,119.58 667.35,114.86 670.03,108.67
             672.72,102.48 674.06,94.95 674.06,86.11
             674.06,72.93 671.09,62.73 665.16,55.50
             659.23,48.26 650.76,44.64 639.75,44.64
             632.55,44.64 626.39,46.27 621.28,49.52
             616.18,52.77 612.28,57.49 609.59,63.69
             606.91,69.89 605.56,77.36 605.56,86.11
             605.56,99.20 608.55,109.40 614.53,116.72
             620.51,124.04 628.91,127.70 639.75,127.70 Z
           M 686.56,132.66
           C 685.60,132.74 684.87,132.50 684.34,131.94
             683.82,131.38 683.56,130.75 683.56,130.05
             683.56,129.53 683.76,129.03 684.16,128.56
             684.54,128.09 685.17,127.80 686.05,127.70
             686.05,127.70 690.33,127.31 690.33,127.31
             695.18,126.89 698.95,125.03 701.64,121.73
             704.33,118.45 705.67,114.11 705.67,108.73
             705.67,108.73 705.67,42.44 705.67,42.44
             705.67,41.48 705.91,40.76 706.38,40.28
             706.85,39.80 707.53,39.56 708.41,39.56
             709.27,39.56 709.94,39.80 710.41,40.28
             710.88,40.76 711.12,41.48 711.12,42.44
             711.12,42.44 711.12,108.98 711.12,108.98
             711.12,113.58 710.34,117.55 708.78,120.89
             707.23,124.23 704.93,126.84 701.89,128.75
             698.86,130.66 695.13,131.83 690.72,132.27
             690.72,132.27 686.56,132.66 686.56,132.66 Z
           M 739.20,132.78
           C 738.34,132.78 737.66,132.52 737.19,132.00
             736.72,131.48 736.48,130.79 736.48,129.92
             736.48,129.92 736.48,42.44 736.48,42.44
             736.48,41.48 736.72,40.76 737.19,40.28
             737.66,39.80 738.34,39.56 739.20,39.56
             740.08,39.56 740.75,39.80 741.22,40.28
             741.70,40.76 741.94,41.48 741.94,42.44
             741.94,42.44 741.94,129.92 741.94,129.92
             741.94,130.79 741.72,131.48 741.28,132.00
             740.85,132.52 740.16,132.78 739.20,132.78 Z
           M 767.27,75.58
           C 766.74,75.58 766.30,75.39 765.95,75.00
             765.61,74.61 765.39,74.06 765.31,73.38
             765.31,73.38 763.88,43.08 763.88,43.08
             763.79,42.13 764.07,41.31 764.72,40.61
             765.38,39.91 766.18,39.56 767.12,39.56
             767.82,39.56 768.41,39.72 768.88,40.03
             769.35,40.34 769.74,40.75 770.05,41.27
             770.36,41.79 770.47,42.39 770.38,43.08
             770.38,43.08 769.20,73.38 769.20,73.38
             769.20,74.16 769.01,74.72 768.62,75.06
             768.24,75.41 767.79,75.58 767.27,75.58 Z
           M 820.30,133.05
           C 815.96,133.05 811.84,132.66 807.94,131.88
             804.04,131.09 800.43,129.97 797.09,128.50
             793.76,127.02 790.75,125.20 788.06,123.03
             787.46,122.51 787.05,121.95 786.83,121.34
             786.61,120.74 786.61,120.16 786.83,119.59
             787.05,119.02 787.37,118.56 787.80,118.22
             788.23,117.88 788.75,117.70 789.36,117.70
             789.96,117.70 790.57,117.96 791.19,118.48
             795.26,121.70 799.57,124.03 804.11,125.50
             808.66,126.97 814.05,127.70 820.30,127.70
             828.96,127.70 835.48,125.98 839.86,122.52
             844.24,119.05 846.44,114.45 846.44,108.73
             846.44,104.05 844.83,100.39 841.62,97.75
             838.41,95.11 833.17,93.04 825.89,91.56
             825.89,91.56 813.02,88.97 813.02,88.97
             804.87,87.32 798.80,84.59 794.81,80.78
             790.83,76.97 788.84,71.81 788.84,65.31
             788.84,61.41 789.60,57.88 791.11,54.72
             792.63,51.55 794.77,48.82 797.55,46.53
             800.32,44.23 803.61,42.45 807.42,41.20
             811.24,39.95 815.45,39.31 820.05,39.31
             825.77,39.31 831.00,40.16 835.77,41.84
             840.54,43.53 844.87,46.15 848.77,49.70
             849.38,50.23 849.77,50.81 849.94,51.47
             850.11,52.12 850.09,52.72 849.88,53.28
             849.66,53.84 849.35,54.28 848.95,54.59
             848.57,54.90 848.07,55.05 847.47,55.05
             846.86,55.05 846.26,54.74 845.66,54.12
             841.93,50.84 837.98,48.43 833.81,46.92
             829.66,45.40 825.07,44.64 820.05,44.64
             814.93,44.64 810.47,45.48 806.66,47.17
             802.84,48.86 799.88,51.27 797.75,54.39
             795.62,57.51 794.56,61.15 794.56,65.31
             794.56,70.34 796.04,74.30 798.98,77.20
             801.93,80.11 806.70,82.21 813.28,83.52
             813.28,83.52 826.16,86.11 826.16,86.11
             834.99,87.93 841.53,90.60 845.78,94.11
             850.03,97.62 852.16,102.45 852.16,108.59
             852.16,112.24 851.41,115.56 849.94,118.55
             848.47,121.54 846.37,124.12 843.64,126.28
             840.91,128.45 837.57,130.12 833.62,131.30
             829.68,132.46 825.23,133.05 820.30,133.05 Z
           M 905.20,132.78
           C 904.34,132.78 903.66,132.52 903.19,132.00
             902.72,131.48 902.48,130.79 902.48,129.92
             902.48,129.92 902.48,43.20 902.48,43.20
             902.48,42.26 902.74,41.54 903.27,41.06
             903.79,40.59 904.48,40.34 905.34,40.34
             905.34,40.34 935.62,40.34 935.62,40.34
             945.25,40.34 952.62,42.64 957.73,47.23
             962.85,51.83 965.41,58.38 965.41,66.88
             965.41,75.37 962.85,81.91 957.73,86.50
             952.62,91.09 945.25,93.39 935.62,93.39
             935.62,93.39 907.94,93.39 907.94,93.39
             907.94,93.39 907.94,129.92 907.94,129.92
             907.94,130.79 907.72,131.48 907.28,132.00
             906.85,132.52 906.16,132.78 905.20,132.78 Z
           M 907.94,88.31
           C 907.94,88.31 935.50,88.31 935.50,88.31
             943.56,88.31 949.61,86.50 953.64,82.86
             957.67,79.23 959.69,73.90 959.69,66.88
             959.69,59.86 957.67,54.53 953.64,50.89
             949.61,47.25 943.56,45.42 935.50,45.42
             935.50,45.42 907.94,45.42 907.94,45.42
             907.94,45.42 907.94,88.31 907.94,88.31 Z
           M 1017.75,133.05
           C 1009.52,133.05 1002.41,131.14 996.42,127.33
             990.44,123.51 985.83,118.09 982.58,111.08
             979.33,104.06 977.70,95.73 977.70,86.11
             977.70,78.83 978.61,72.31 980.44,66.55
             982.26,60.79 984.90,55.89 988.36,51.86
             991.83,47.83 996.03,44.73 1000.97,42.56
             1005.91,40.40 1011.51,39.31 1017.75,39.31
             1026.07,39.31 1033.24,41.20 1039.27,44.97
             1045.29,48.74 1049.90,54.12 1053.11,61.09
             1056.32,68.06 1057.92,76.36 1057.92,85.98
             1057.92,93.27 1056.99,99.81 1055.12,105.61
             1053.26,111.41 1050.59,116.36 1047.12,120.44
             1043.66,124.51 1039.46,127.63 1034.52,129.80
             1029.58,131.96 1023.99,133.05 1017.75,133.05 Z
           M 1017.75,127.70
           C 1025.03,127.70 1031.23,126.08 1036.34,122.83
             1041.46,119.58 1045.35,114.86 1048.03,108.67
             1050.72,102.48 1052.06,94.95 1052.06,86.11
             1052.06,72.93 1049.09,62.73 1043.16,55.50
             1037.23,48.26 1028.76,44.64 1017.75,44.64
             1010.55,44.64 1004.39,46.27 999.28,49.52
             994.18,52.77 990.28,57.49 987.59,63.69
             984.91,69.89 983.56,77.36 983.56,86.11
             983.56,99.20 986.55,109.40 992.53,116.72
             998.51,124.04 1006.91,127.70 1017.75,127.70 Z
           M 1082.20,132.78
           C 1081.34,132.78 1080.66,132.52 1080.19,132.00
             1079.72,131.48 1079.48,130.79 1079.48,129.92
             1079.48,129.92 1079.48,43.20 1079.48,43.20
             1079.48,42.26 1079.74,41.54 1080.27,41.06
             1080.79,40.59 1081.48,40.34 1082.34,40.34
             1082.34,40.34 1112.62,40.34 1112.62,40.34
             1122.25,40.34 1129.62,42.56 1134.73,46.98
             1139.85,51.40 1142.41,57.73 1142.41,65.95
             1142.41,71.25 1141.23,75.78 1138.89,79.55
             1136.55,83.32 1133.14,86.18 1128.67,88.12
             1124.21,90.07 1118.86,91.05 1112.62,91.05
             1112.62,91.05 1114.06,89.48 1114.06,89.48
             1114.06,89.48 1115.09,89.48 1115.09,89.48
             1118.39,89.48 1121.23,90.36 1123.61,92.09
             1125.99,93.82 1128.23,96.64 1130.31,100.55
             1130.31,100.55 1145.27,128.36 1145.27,128.36
             1145.69,129.06 1145.88,129.76 1145.84,130.45
             1145.80,131.14 1145.58,131.70 1145.19,132.12
             1144.80,132.56 1144.30,132.78 1143.70,132.78
             1142.92,132.78 1142.29,132.58 1141.81,132.19
             1141.33,131.80 1140.92,131.31 1140.58,130.70
             1140.58,130.70 1125.50,102.62 1125.50,102.62
             1123.07,98.12 1120.38,95.12 1117.44,93.66
             1114.49,92.18 1110.46,91.44 1105.34,91.44
             1105.34,91.44 1084.94,91.44 1084.94,91.44
             1084.94,91.44 1084.94,129.92 1084.94,129.92
             1084.94,130.79 1084.72,131.48 1084.28,132.00
             1083.85,132.52 1083.16,132.78 1082.20,132.78 Z
           M 1084.94,86.38
           C 1084.94,86.38 1112.11,86.38 1112.11,86.38
             1120.34,86.38 1126.49,84.64 1130.56,81.17
             1134.64,77.70 1136.69,72.59 1136.69,65.83
             1136.69,59.15 1134.64,54.09 1130.56,50.62
             1126.49,47.16 1120.34,45.42 1112.11,45.42
             1112.11,45.42 1084.94,45.42 1084.94,45.42
             1084.94,45.42 1084.94,86.38 1084.94,86.38 Z
           M 1187.09,132.78
           C 1186.23,132.78 1185.55,132.52 1185.08,132.00
             1184.60,131.48 1184.36,130.79 1184.36,129.92
             1184.36,129.92 1184.36,45.42 1184.36,45.42
             1184.36,45.42 1151.47,45.42 1151.47,45.42
             1150.60,45.42 1149.91,45.18 1149.39,44.70
             1148.87,44.23 1148.61,43.59 1148.61,42.81
             1148.61,42.04 1148.87,41.44 1149.39,41.00
             1149.91,40.56 1150.60,40.34 1151.47,40.34
             1151.47,40.34 1222.70,40.34 1222.70,40.34
             1223.66,40.34 1224.38,40.56 1224.84,41.00
             1225.32,41.44 1225.56,42.04 1225.56,42.81
             1225.56,43.69 1225.32,44.34 1224.84,44.78
             1224.38,45.21 1223.66,45.42 1222.70,45.42
             1222.70,45.42 1189.81,45.42 1189.81,45.42
             1189.81,45.42 1189.81,129.92 1189.81,129.92
             1189.81,130.79 1189.59,131.48 1189.16,132.00
             1188.73,132.52 1188.04,132.78 1187.09,132.78 Z
           M 1240.73,132.78
           C 1239.69,132.78 1238.89,132.50 1238.33,131.94
             1237.77,131.38 1237.48,130.57 1237.48,129.53
             1237.48,129.53 1237.48,43.59 1237.48,43.59
             1237.48,42.56 1237.77,41.77 1238.33,41.20
             1238.89,40.63 1239.69,40.34 1240.73,40.34
             1240.73,40.34 1289.34,40.34 1289.34,40.34
             1290.22,40.34 1290.89,40.56 1291.36,41.00
             1291.84,41.44 1292.08,42.04 1292.08,42.81
             1292.08,43.69 1291.84,44.34 1291.36,44.78
             1290.89,45.21 1290.22,45.42 1289.34,45.42
             1289.34,45.42 1242.94,45.42 1242.94,45.42
             1242.94,45.42 1242.94,82.98 1242.94,82.98
             1242.94,82.98 1286.75,82.98 1286.75,82.98
             1287.61,82.98 1288.29,83.20 1288.77,83.64
             1289.24,84.08 1289.48,84.68 1289.48,85.45
             1289.48,86.33 1289.24,86.98 1288.77,87.42
             1288.29,87.85 1287.61,88.06 1286.75,88.06
             1286.75,88.06 1242.94,88.06 1242.94,88.06
             1242.94,88.06 1242.94,129.53 1242.94,129.53
             1242.94,131.70 1242.20,132.78 1240.73,132.78 Z
           M 1340.75,133.05
           C 1332.52,133.05 1325.41,131.14 1319.42,127.33
             1313.44,123.51 1308.83,118.09 1305.58,111.08
             1302.33,104.06 1300.70,95.73 1300.70,86.11
             1300.70,78.83 1301.61,72.31 1303.44,66.55
             1305.26,60.79 1307.90,55.89 1311.36,51.86
             1314.83,47.83 1319.03,44.73 1323.97,42.56
             1328.91,40.40 1334.51,39.31 1340.75,39.31
             1349.07,39.31 1356.24,41.20 1362.27,44.97
             1368.29,48.74 1372.90,54.12 1376.11,61.09
             1379.32,68.06 1380.92,76.36 1380.92,85.98
             1380.92,93.27 1379.99,99.81 1378.12,105.61
             1376.26,111.41 1373.59,116.36 1370.12,120.44
             1366.66,124.51 1362.46,127.63 1357.52,129.80
             1352.58,131.96 1346.99,133.05 1340.75,133.05 Z
           M 1340.75,127.70
           C 1348.03,127.70 1354.23,126.08 1359.34,122.83
             1364.46,119.58 1368.35,114.86 1371.03,108.67
             1373.72,102.48 1375.06,94.95 1375.06,86.11
             1375.06,72.93 1372.09,62.73 1366.16,55.50
             1360.23,48.26 1351.76,44.64 1340.75,44.64
             1333.55,44.64 1327.39,46.27 1322.28,49.52
             1317.18,52.77 1313.28,57.49 1310.59,63.69
             1307.91,69.89 1306.56,77.36 1306.56,86.11
             1306.56,99.20 1309.55,109.40 1315.53,116.72
             1321.51,124.04 1329.91,127.70 1340.75,127.70 Z
           M 1405.34,132.00
           C 1404.48,132.00 1403.79,131.74 1403.27,131.22
             1402.74,130.70 1402.48,130.01 1402.48,129.14
             1402.48,129.14 1402.48,42.44 1402.48,42.44
             1402.48,41.48 1402.72,40.76 1403.19,40.28
             1403.66,39.80 1404.34,39.56 1405.20,39.56
             1406.08,39.56 1406.75,39.80 1407.22,40.28
             1407.70,40.76 1407.94,41.48 1407.94,42.44
             1407.94,42.44 1407.94,126.94 1407.94,126.94
             1407.94,126.94 1454.73,126.94 1454.73,126.94
             1455.69,126.94 1456.41,127.16 1456.88,127.59
             1457.35,128.02 1457.59,128.62 1457.59,129.41
             1457.59,130.27 1457.35,130.92 1456.88,131.36
             1456.41,131.79 1455.69,132.00 1454.73,132.00
             1454.73,132.00 1405.34,132.00 1405.34,132.00 Z
           M 1474.20,132.78
           C 1473.34,132.78 1472.66,132.52 1472.19,132.00
             1471.72,131.48 1471.48,130.79 1471.48,129.92
             1471.48,129.92 1471.48,42.44 1471.48,42.44
             1471.48,41.48 1471.72,40.76 1472.19,40.28
             1472.66,39.80 1473.34,39.56 1474.20,39.56
             1475.08,39.56 1475.75,39.80 1476.22,40.28
             1476.70,40.76 1476.94,41.48 1476.94,42.44
             1476.94,42.44 1476.94,129.92 1476.94,129.92
             1476.94,130.79 1476.72,131.48 1476.28,132.00
             1475.85,132.52 1475.16,132.78 1474.20,132.78 Z
           M 1537.75,133.05
           C 1529.52,133.05 1522.41,131.14 1516.42,127.33
             1510.44,123.51 1505.83,118.09 1502.58,111.08
             1499.33,104.06 1497.70,95.73 1497.70,86.11
             1497.70,78.83 1498.61,72.31 1500.44,66.55
             1502.26,60.79 1504.90,55.89 1508.36,51.86
             1511.83,47.83 1516.03,44.73 1520.97,42.56
             1525.91,40.40 1531.51,39.31 1537.75,39.31
             1546.07,39.31 1553.24,41.20 1559.27,44.97
             1565.29,48.74 1569.90,54.12 1573.11,61.09
             1576.32,68.06 1577.92,76.36 1577.92,85.98
             1577.92,93.27 1576.99,99.81 1575.12,105.61
             1573.26,111.41 1570.59,116.36 1567.12,120.44
             1563.66,124.51 1559.46,127.63 1554.52,129.80
             1549.58,131.96 1543.99,133.05 1537.75,133.05 Z
           M 1537.75,127.70
           C 1545.03,127.70 1551.23,126.08 1556.34,122.83
             1561.46,119.58 1565.35,114.86 1568.03,108.67
             1570.72,102.48 1572.06,94.95 1572.06,86.11
             1572.06,72.93 1569.09,62.73 1563.16,55.50
             1557.23,48.26 1548.76,44.64 1537.75,44.64
             1530.55,44.64 1524.39,46.27 1519.28,49.52
             1514.18,52.77 1510.28,57.49 1507.59,63.69
             1504.91,69.89 1503.56,77.36 1503.56,86.11
             1503.56,99.20 1506.55,109.40 1512.53,116.72
             1518.51,124.04 1526.91,127.70 1537.75,127.70 Z" />
</svg>
